<svg width="394" height="72" viewBox="0 0 394 72" fill="none" xmlns="http://www.w3.org/2000/svg">
<g filter="url(#filter0_d)">
<path d="M14 20C14 14.4772 18.4772 10 24 10H370C375.523 10 380 14.4772 380 20V44C380 49.5228 375.523 54 370 54H24C18.4772 54 14 49.5228 14 44V20Z" fill="url(#paint0_linear)"/>
</g>
<mask id="mask0" style="mask-type:alpha" maskUnits="userSpaceOnUse" x="14" y="10" width="349" height="44">
<path d="M14 20C14 14.4772 18.4772 10 24 10H353C358.523 10 363 14.4772 363 20V44C363 49.5228 358.523 54 353 54H24C18.4772 54 14 49.5228 14 44V20Z" fill="url(#paint1_linear)"/>
</mask>
<g mask="url(#mask0)">
<path d="M3 4H124L147 67H3V4Z" fill="#0E0E0E"/>
</g>
<g clip-path="url(#clip0)">
<path d="M34.0962 25.2136C34.5023 25.0931 34.9162 24.9999 35.335 24.9347C35.8321 24.8632 36.3339 24.8292 36.8362 24.833C37.788 24.8179 38.7319 25.0048 39.6044 25.3809C40.3921 25.7258 41.0938 26.2369 41.6601 26.8785C42.2287 27.5375 42.6602 28.3009 42.9299 29.1249C43.2261 30.0171 43.3739 30.9509 43.3673 31.89C43.3673 33.197 43.1679 34.3301 42.7691 35.2895C42.4054 36.1982 41.8313 37.01 41.0929 37.6599C40.352 38.2964 39.4838 38.7715 38.5448 39.0543C37.5016 39.3712 36.4151 39.5269 35.3237 39.5159C34.1592 39.5273 32.9966 39.4165 31.8557 39.1854C30.8844 38.9808 29.9295 38.7063 28.9987 38.3641V20H34.0962V25.2136ZM34.0962 35.6395C34.302 35.6962 34.5112 35.7395 34.7227 35.7691C34.9593 35.8002 35.1979 35.8147 35.4366 35.8124C35.837 35.826 36.2354 35.7518 36.6033 35.5951C36.9712 35.4384 37.2994 35.203 37.5642 34.906C38.1088 34.3009 38.3812 33.3741 38.3812 32.1256C38.3812 30.9171 38.114 30.0247 37.5798 29.4484C37.3256 29.1678 37.0128 28.9451 36.663 28.7958C36.3131 28.6465 35.9346 28.5742 35.5537 28.5839C35.2993 28.5819 35.0454 28.6062 34.7961 28.6564C34.5576 28.7051 34.3221 28.767 34.0906 28.8418L34.0962 35.6395ZM48.9305 33.1296C48.9681 33.9746 49.2451 34.6327 49.7615 35.104C50.2779 35.5753 50.9349 35.8114 51.7325 35.8124C52.3012 35.8283 52.8656 35.7102 53.379 35.468C53.8742 35.2057 54.3071 34.842 54.6488 34.4013L57.7669 36.8219C57.4522 37.2092 57.0954 37.5613 56.7031 37.8719C55.7877 38.5947 54.7069 39.0845 53.5554 39.2983C52.8114 39.4387 52.0553 39.5064 51.298 39.5005C50.3311 39.5072 49.3702 39.3512 48.4564 39.039C47.58 38.7455 46.7783 38.2678 46.1066 37.6388C45.4348 37.0099 44.909 36.2445 44.5651 35.3955C44.1586 34.3837 43.9609 33.3018 43.9838 32.2135C43.9645 31.1465 44.1522 30.0857 44.5369 29.0886C44.8767 28.2212 45.3924 27.4316 46.0522 26.7684C46.6996 26.1314 47.4796 25.6413 48.3379 25.3321C49.2566 24.9985 50.2289 24.8322 51.2077 24.8413C53.3259 24.8413 55.0114 25.5185 56.2643 26.8729C57.5172 28.2274 58.1535 30.3166 58.1733 33.1407L48.9305 33.1296ZM53.3903 30.4509C53.3311 29.7017 53.1025 29.1114 52.7046 28.6801C52.5261 28.4749 52.3045 28.3106 52.0553 28.1986C51.806 28.0866 51.5351 28.0297 51.2613 28.0317C50.9739 28.0316 50.6895 28.0904 50.4263 28.2044C50.163 28.3184 49.9266 28.4851 49.7319 28.694C49.2768 29.1739 49.0041 29.7947 48.9601 30.4509H53.3903ZM60.0625 28.6661V34.8293C60.0557 35.4815 60.1306 36.1321 60.2854 36.7661C60.413 37.3063 60.6672 37.8092 61.0275 38.2344C61.4039 38.6549 61.8799 38.9764 62.413 39.1701C63.0916 39.4092 63.8092 39.5217 64.5294 39.5019C65.4116 39.5174 66.2912 39.4008 67.1381 39.1561C67.8811 38.9279 68.584 38.5879 69.222 38.148L67.9057 35.0929C67.638 35.294 67.3501 35.4673 67.0464 35.6102C66.7336 35.7628 66.3893 35.842 66.0405 35.8417C65.6718 35.8417 65.4338 35.7073 65.3266 35.4387C65.2062 35.0764 65.1522 34.6958 65.1671 34.3148V28.6703H68.5886L67.3286 25.1565H65.1671V21.6133H60.0667V25.1565H58.0562V28.6703L60.0625 28.6661ZM77.2557 39.2063L79.4708 31.8342L81.7142 39.2063H85.6195L90.6734 25.1565H85.4531L83.3565 32.6164L81.1696 25.1565H77.8427L75.6586 32.6164L72.0128 21.6008H67.0845L73.3842 39.2049L77.2557 39.2063ZM98.6605 39.2063L98.2528 38.1131C97.7928 38.5203 97.259 38.8377 96.6796 39.0487C95.9439 39.3213 95.1625 39.4533 94.377 39.4378C93.7536 39.4433 93.1337 39.3457 92.5428 39.1491C91.9987 38.9688 91.4982 38.6792 91.0727 38.2986C90.6541 37.927 90.3212 37.471 90.0963 36.9613C89.8534 36.3965 89.7342 35.7873 89.7464 35.1737C89.7268 34.5734 89.8497 33.9768 90.1053 33.4317C90.3608 32.8867 90.7419 32.4084 91.218 32.035C91.6973 31.6575 92.2333 31.3564 92.8067 31.1426C93.4268 30.9077 94.072 30.7435 94.7297 30.6531C95.3505 30.5602 95.9285 30.4881 96.4637 30.437C96.9989 30.3859 97.4895 30.3524 97.9353 30.3366V29.9908C97.9353 29.4154 97.7505 28.9933 97.3808 28.7247C97.0008 28.451 96.5401 28.3089 96.0701 28.3203C95.5243 28.3184 94.984 28.4276 94.4828 28.641C93.9656 28.8657 93.4803 29.1563 93.0395 29.5056L90.7679 26.9956C91.5403 26.3259 92.4219 25.7904 93.3753 25.4116C94.3375 25.0277 95.4888 24.8353 96.8292 24.8343C98.6944 24.8343 100.181 25.281 101.288 26.1744C102.395 27.0677 102.948 28.4565 102.948 30.3408V39.2105L98.6605 39.2063ZM97.9325 32.8423C97.6404 32.8618 97.3498 32.8856 97.0577 32.9148C96.7657 32.9441 96.4652 32.9859 96.1533 33.0431C95.5523 33.1361 95.1253 33.3424 94.8722 33.6622C94.6272 33.9596 94.4936 34.3315 94.4941 34.715C94.4887 34.9008 94.5237 35.0855 94.5968 35.2568C94.6698 35.428 94.7791 35.5818 94.9174 35.7078C95.1996 35.9672 95.5927 36.0968 96.0969 36.0968C96.4402 36.1017 96.7814 36.0431 97.1029 35.9239C97.4006 35.8104 97.6804 35.6554 97.9339 35.4638L97.9325 32.8423ZM102.967 44.162C103.541 44.4132 104.135 44.6152 104.744 44.7657C105.412 44.9245 106.097 45.0017 106.784 44.9958C107.951 44.9958 108.966 44.756 109.829 44.2763C110.693 43.7966 111.378 42.9707 111.885 41.7985L118.996 25.1523H113.754L110.899 33.3638L108.013 25.1565H102.476L108.509 38.6067L107.693 40.4194C107.582 40.7102 107.386 40.9614 107.129 41.1403C106.857 41.2866 106.55 41.3565 106.241 41.3425C105.894 41.3363 105.549 41.2775 105.22 41.1682C104.886 41.0674 104.564 40.9323 104.259 40.7652L102.967 44.162Z" fill="white"/>
</g>
<path d="M162.665 42.12C162.065 42.12 161.555 42.08 161.135 42V39C161.455 39.08 161.815 39.12 162.215 39.12C162.875 39.12 163.365 38.96 163.685 38.64C164.005 38.3 164.165 37.79 164.165 37.11V21H167.465V37.02C167.465 38.74 167.065 40.02 166.265 40.86C165.485 41.7 164.285 42.12 162.665 42.12ZM174.625 42.3C173.025 42.3 171.805 41.85 170.965 40.95C170.125 40.03 169.705 38.72 169.705 37.02V21H173.005V37.26C173.005 37.98 173.145 38.5 173.425 38.82C173.725 39.14 174.145 39.3 174.685 39.3C175.225 39.3 175.635 39.14 175.915 38.82C176.215 38.5 176.365 37.98 176.365 37.26V21H179.545V37.02C179.545 38.72 179.125 40.03 178.285 40.95C177.445 41.85 176.225 42.3 174.625 42.3ZM186.185 42.3C184.585 42.3 183.375 41.85 182.555 40.95C181.735 40.03 181.325 38.72 181.325 37.02V35.82H184.445V37.26C184.445 38.62 185.015 39.3 186.155 39.3C186.715 39.3 187.135 39.14 187.415 38.82C187.715 38.48 187.865 37.94 187.865 37.2C187.865 36.32 187.665 35.55 187.265 34.89C186.865 34.21 186.125 33.4 185.045 32.46C183.685 31.26 182.735 30.18 182.195 29.22C181.655 28.24 181.385 27.14 181.385 25.92C181.385 24.26 181.805 22.98 182.645 22.08C183.485 21.16 184.705 20.7 186.305 20.7C187.885 20.7 189.075 21.16 189.875 22.08C190.695 22.98 191.105 24.28 191.105 25.98V26.85H187.985V25.77C187.985 25.05 187.845 24.53 187.565 24.21C187.285 23.87 186.875 23.7 186.335 23.7C185.235 23.7 184.685 24.37 184.685 25.71C184.685 26.47 184.885 27.18 185.285 27.84C185.705 28.5 186.455 29.3 187.535 30.24C188.915 31.44 189.865 32.53 190.385 33.51C190.905 34.49 191.165 35.64 191.165 36.96C191.165 38.68 190.735 40 189.875 40.92C189.035 41.84 187.805 42.3 186.185 42.3ZM202.777 43.95C201.277 43.95 200.357 43.28 200.017 41.94C199.397 42.18 198.667 42.3 197.827 42.3C196.207 42.3 194.967 41.84 194.107 40.92C193.247 40 192.817 38.7 192.817 37.02V25.98C192.817 24.3 193.247 23 194.107 22.08C194.967 21.16 196.207 20.7 197.827 20.7C199.447 20.7 200.687 21.16 201.547 22.08C202.407 23 202.837 24.3 202.837 25.98V37.02C202.837 38.42 202.527 39.57 201.907 40.47C202.027 40.67 202.177 40.8 202.357 40.86C202.537 40.92 202.797 40.95 203.137 40.95H203.647V43.95H202.777ZM197.827 39.3C198.967 39.3 199.537 38.61 199.537 37.23V25.77C199.537 24.39 198.967 23.7 197.827 23.7C196.687 23.7 196.117 24.39 196.117 25.77V37.23C196.117 38.61 196.687 39.3 197.827 39.3ZM209.869 42.3C208.269 42.3 207.049 41.85 206.209 40.95C205.369 40.03 204.949 38.72 204.949 37.02V21H208.249V37.26C208.249 37.98 208.389 38.5 208.669 38.82C208.969 39.14 209.389 39.3 209.929 39.3C210.469 39.3 210.879 39.14 211.159 38.82C211.459 38.5 211.609 37.98 211.609 37.26V21H214.789V37.02C214.789 38.72 214.369 40.03 213.529 40.95C212.689 41.85 211.469 42.3 209.869 42.3ZM218.219 24.18H217.139V21H220.319V23.85L218.489 27.78H216.959L218.219 24.18ZM223.761 21H228.231L231.651 42H228.351L227.751 37.83V37.89H224.001L223.401 42H220.341L223.761 21ZM227.361 35.04L225.891 24.66H225.831L224.391 35.04H227.361ZM222.111 16.14H225.711L227.811 19.59H225.321L222.111 16.14Z" fill="#232323"/>
<path d="M242.677 25.98H239.227V23.64C240.167 23.64 240.917 23.56 241.477 23.4C242.057 23.24 242.517 22.98 242.857 22.62C243.197 22.24 243.497 21.7 243.757 21H245.977V42H242.677V25.98ZM254.899 42.3C253.299 42.3 252.079 41.85 251.239 40.95C250.399 40.03 249.979 38.72 249.979 37.02V35.37H253.099V37.26C253.099 38.62 253.669 39.3 254.809 39.3C255.949 39.3 256.519 38.62 256.519 37.26V32.55C256.519 31.17 255.949 30.48 254.809 30.48C253.669 30.48 253.099 31.17 253.099 32.55V32.73H249.979L250.579 21H259.279V24H253.519L253.249 29.01H253.309C253.929 27.99 254.879 27.48 256.159 27.48C257.359 27.48 258.269 27.89 258.889 28.71C259.509 29.53 259.819 30.72 259.819 32.28V37.02C259.819 38.72 259.399 40.03 258.559 40.95C257.719 41.85 256.499 42.3 254.899 42.3ZM266.851 42.3C265.231 42.3 263.991 41.84 263.131 40.92C262.271 40 261.841 38.7 261.841 37.02V25.98C261.841 24.3 262.271 23 263.131 22.08C263.991 21.16 265.231 20.7 266.851 20.7C268.471 20.7 269.711 21.16 270.571 22.08C271.431 23 271.861 24.3 271.861 25.98V37.02C271.861 38.7 271.431 40 270.571 40.92C269.711 41.84 268.471 42.3 266.851 42.3ZM266.851 39.3C267.991 39.3 268.561 38.61 268.561 37.23V25.77C268.561 24.39 267.991 23.7 266.851 23.7C265.711 23.7 265.141 24.39 265.141 25.77V37.23C265.141 38.61 265.711 39.3 266.851 39.3ZM279.222 42.3C277.622 42.3 276.412 41.85 275.592 40.95C274.792 40.03 274.392 38.72 274.392 37.02V33.6H273.552V31.95H274.392V30.3H273.552V28.65H274.392V25.98C274.392 24.28 274.792 22.98 275.592 22.08C276.412 21.16 277.622 20.7 279.222 20.7C280.822 20.7 282.022 21.16 282.822 22.08C283.642 22.98 284.052 24.28 284.052 25.98V26.97H280.932V25.77C280.932 25.03 280.792 24.5 280.512 24.18C280.252 23.86 279.852 23.7 279.312 23.7C278.772 23.7 278.362 23.86 278.082 24.18C277.822 24.5 277.692 25.03 277.692 25.77V28.65H282.312V30.3H277.692V31.95H282.312V33.6H277.692V37.26C277.692 37.98 277.822 38.5 278.082 38.82C278.362 39.14 278.772 39.3 279.312 39.3C279.852 39.3 280.252 39.14 280.512 38.82C280.792 38.5 280.932 37.98 280.932 37.26V35.28H284.052V37.02C284.052 38.72 283.642 40.03 282.822 40.95C282.022 41.85 280.822 42.3 279.222 42.3ZM295.679 42.3C294.059 42.3 292.819 41.84 291.959 40.92C291.099 40 290.669 38.7 290.669 37.02V25.98C290.669 24.3 291.099 23 291.959 22.08C292.819 21.16 294.059 20.7 295.679 20.7C297.299 20.7 298.539 21.16 299.399 22.08C300.259 23 300.689 24.3 300.689 25.98V37.02C300.689 38.7 300.259 40 299.399 40.92C298.539 41.84 297.299 42.3 295.679 42.3ZM295.679 39.3C296.819 39.3 297.389 38.61 297.389 37.23V25.77C297.389 24.39 296.819 23.7 295.679 23.7C294.539 23.7 293.969 24.39 293.969 25.77V37.23C293.969 38.61 294.539 39.3 295.679 39.3ZM302.92 21H311.65V24H306.22V29.85H310.48V32.85H306.22V42H302.92V21ZM313.233 21H321.963V24H316.533V29.85H320.793V32.85H316.533V42H313.233V21ZM323.545 21H332.545V24H326.845V29.55H331.375V32.55H326.845V39H332.545V42H323.545V21ZM334.444 21H339.334C341.034 21 342.274 21.4 343.054 22.2C343.834 22.98 344.224 24.19 344.224 25.83V27.12C344.224 29.3 343.504 30.68 342.064 31.26V31.32C342.864 31.56 343.424 32.05 343.744 32.79C344.084 33.53 344.254 34.52 344.254 35.76V39.45C344.254 40.05 344.274 40.54 344.314 40.92C344.354 41.28 344.454 41.64 344.614 42H341.254C341.134 41.66 341.054 41.34 341.014 41.04C340.974 40.74 340.954 40.2 340.954 39.42V35.58C340.954 34.62 340.794 33.95 340.474 33.57C340.174 33.19 339.644 33 338.884 33H337.744V42H334.444V21ZM338.944 30C339.604 30 340.094 29.83 340.414 29.49C340.754 29.15 340.924 28.58 340.924 27.78V26.16C340.924 25.4 340.784 24.85 340.504 24.51C340.244 24.17 339.824 24 339.244 24H337.744V30H338.944ZM349.065 24H345.615V21H355.815V24H352.365V42H349.065V24ZM361.703 42.3C360.103 42.3 358.893 41.85 358.073 40.95C357.253 40.03 356.843 38.72 356.843 37.02V35.82H359.963V37.26C359.963 38.62 360.533 39.3 361.673 39.3C362.233 39.3 362.653 39.14 362.933 38.82C363.233 38.48 363.383 37.94 363.383 37.2C363.383 36.32 363.183 35.55 362.783 34.89C362.383 34.21 361.643 33.4 360.563 32.46C359.203 31.26 358.253 30.18 357.713 29.22C357.173 28.24 356.903 27.14 356.903 25.92C356.903 24.26 357.323 22.98 358.163 22.08C359.003 21.16 360.223 20.7 361.823 20.7C363.403 20.7 364.593 21.16 365.393 22.08C366.213 22.98 366.623 24.28 366.623 25.98V26.85H363.503V25.77C363.503 25.05 363.363 24.53 363.083 24.21C362.803 23.87 362.393 23.7 361.853 23.7C360.753 23.7 360.203 24.37 360.203 25.71C360.203 26.47 360.403 27.18 360.803 27.84C361.223 28.5 361.973 29.3 363.053 30.24C364.433 31.44 365.383 32.53 365.903 33.51C366.423 34.49 366.683 35.64 366.683 36.96C366.683 38.68 366.253 40 365.393 40.92C364.553 41.84 363.323 42.3 361.703 42.3Z" fill="#02CC2B"/>
<path d="M130.255 38.9905L135.429 33.8161L131.737 31.6839C131.449 31.5173 131.281 31.2007 131.305 30.8685C131.329 30.5362 131.541 30.2468 131.85 30.1235L148.311 23.5573C148.634 23.4285 149.002 23.5044 149.248 23.75C149.493 23.9958 149.569 24.3642 149.441 24.6869L142.875 41.1494C142.752 41.4588 142.463 41.6706 142.13 41.6946C141.798 41.7187 141.481 41.5508 141.315 41.2623L139.183 37.5709L134.009 42.7452C133.846 42.9083 133.625 43 133.394 43C133.164 43 132.942 42.9083 132.779 42.7452L130.255 40.2201C129.915 39.8805 129.915 39.33 130.255 38.9905Z" fill="#02CC2B"/>
<path d="M152.181 19.587C152.521 19.2477 153.071 19.2476 153.411 19.587C153.75 19.9266 153.75 20.4772 153.411 20.8167L151.479 22.7487C151.309 22.9185 151.087 23.0034 150.864 23.0034C150.642 23.0034 150.419 22.9185 150.249 22.7487C149.91 22.4091 149.91 21.8587 150.249 21.5191L152.181 19.587Z" fill="#02CC2B"/>
<path d="M151.526 25.5979C151.526 25.1178 151.916 24.7285 152.396 24.7285H155.128C155.608 24.7285 155.998 25.1178 155.998 25.5979C155.998 26.0781 155.608 26.4675 155.128 26.4675H152.396C151.916 26.4674 151.526 26.0781 151.526 25.5979Z" fill="#02CC2B"/>
<path d="M151.879 28.2814L153.811 30.2136C154.151 30.5532 154.151 31.1037 153.811 31.4432C153.641 31.6129 153.419 31.6979 153.196 31.6979C152.974 31.6979 152.751 31.6129 152.581 31.4432L150.649 29.5111C150.31 29.1716 150.31 28.621 150.649 28.2814C150.989 27.9421 151.539 27.942 151.879 28.2814Z" fill="#02CC2B"/>
<path d="M147.4 21.4715C146.92 21.4715 146.531 21.0822 146.531 20.6019V17.8695C146.531 17.3893 146.92 17 147.4 17C147.88 17 148.27 17.3892 148.27 17.8695V20.602C148.27 21.0822 147.88 21.4715 147.4 21.4715Z" fill="#02CC2B"/>
<path d="M144.102 22.6032C143.88 22.6032 143.657 22.5183 143.488 22.3485L141.556 20.4166C141.216 20.077 141.216 19.5264 141.556 19.1869C141.895 18.8475 142.446 18.8475 142.785 19.1869L144.717 21.1189C145.057 21.4585 145.057 22.009 144.717 22.3485C144.547 22.5183 144.325 22.6032 144.102 22.6032Z" fill="#02CC2B"/>
<defs>
<filter id="filter0_d" x="0" y="0" width="394" height="72" filterUnits="userSpaceOnUse" color-interpolation-filters="sRGB">
<feFlood flood-opacity="0" result="BackgroundImageFix"/>
<feColorMatrix in="SourceAlpha" type="matrix" values="0 0 0 0 0 0 0 0 0 0 0 0 0 0 0 0 0 0 127 0" result="hardAlpha"/>
<feOffset dy="4"/>
<feGaussianBlur stdDeviation="7"/>
<feColorMatrix type="matrix" values="0 0 0 0 0 0 0 0 0 0 0 0 0 0 0 0 0 0 0.25 0"/>
<feBlend mode="normal" in2="BackgroundImageFix" result="effect1_dropShadow"/>
<feBlend mode="normal" in="SourceGraphic" in2="effect1_dropShadow" result="shape"/>
</filter>
<linearGradient id="paint0_linear" x1="127.943" y1="40.9999" x2="380" y2="40.9999" gradientUnits="userSpaceOnUse">
<stop offset="0.0199364" stop-color="white" stop-opacity="0.87"/>
<stop offset="1" stop-color="white"/>
</linearGradient>
<linearGradient id="paint1_linear" x1="122.651" y1="40.9999" x2="363" y2="40.9999" gradientUnits="userSpaceOnUse">
<stop offset="0.0199364" stop-color="white" stop-opacity="0.87"/>
<stop offset="1" stop-color="white"/>
</linearGradient>
<clipPath id="clip0">
<rect width="90" height="25" fill="white" transform="translate(29 20)"/>
</clipPath>
</defs>
</svg>
