<svg width="366" height="44" viewBox="0 0 366 44" fill="none" xmlns="http://www.w3.org/2000/svg">
<path d="M0 10C0 4.47715 4.47715 0 10 0H356C361.523 0 366 4.47715 366 10V34C366 39.5228 361.523 44 356 44H10C4.47716 44 0 39.5228 0 34V10Z" fill="url(#paint0_linear)"/>
<mask id="mask0" style="mask-type:alpha" maskUnits="userSpaceOnUse" x="0" y="0" width="349" height="44">
<path d="M0 10C0 4.47715 4.47715 0 10 0H339C344.523 0 349 4.47715 349 10V34C349 39.5228 344.523 44 339 44H10C4.47716 44 0 39.5228 0 34V10Z" fill="url(#paint1_linear)"/>
</mask>
<g mask="url(#mask0)">
<path d="M-11 -6H110L133 57H-11V-6Z" fill="#0E0E0E"/>
</g>
<g clip-path="url(#clip0)">
<path d="M20.0962 15.2136C20.5023 15.0931 20.9162 14.9999 21.335 14.9347C21.8321 14.8632 22.3339 14.8292 22.8362 14.833C23.788 14.8179 24.7319 15.0048 25.6044 15.3809C26.3921 15.7258 27.0938 16.2369 27.6601 16.8785C28.2287 17.5375 28.6602 18.3009 28.9299 19.1249C29.2261 20.0171 29.3739 20.9509 29.3673 21.89C29.3673 23.197 29.1679 24.3301 28.7691 25.2895C28.4054 26.1982 27.8313 27.01 27.0929 27.6599C26.352 28.2964 25.4838 28.7715 24.5448 29.0543C23.5016 29.3712 22.4151 29.5269 21.3237 29.5159C20.1592 29.5273 18.9966 29.4165 17.8557 29.1854C16.8844 28.9808 15.9295 28.7063 14.9987 28.3641V10H20.0962V15.2136ZM20.0962 25.6395C20.302 25.6962 20.5112 25.7395 20.7227 25.7691C20.9593 25.8002 21.1979 25.8147 21.4366 25.8124C21.837 25.826 22.2354 25.7518 22.6033 25.5951C22.9712 25.4384 23.2994 25.203 23.5642 24.906C24.1088 24.3009 24.3812 23.3741 24.3812 22.1256C24.3812 20.9171 24.114 20.0247 23.5798 19.4484C23.3256 19.1678 23.0128 18.9451 22.663 18.7958C22.3131 18.6465 21.9346 18.5742 21.5537 18.5839C21.2993 18.5819 21.0454 18.6062 20.7961 18.6564C20.5576 18.7051 20.3221 18.767 20.0906 18.8418L20.0962 25.6395ZM34.9305 23.1296C34.9681 23.9746 35.2451 24.6327 35.7615 25.104C36.2779 25.5753 36.9349 25.8114 37.7325 25.8124C38.3012 25.8283 38.8656 25.7102 39.379 25.468C39.8742 25.2057 40.3071 24.842 40.6488 24.4013L43.7669 26.8219C43.4522 27.2092 43.0954 27.5613 42.7031 27.8719C41.7877 28.5947 40.7069 29.0845 39.5554 29.2983C38.8114 29.4387 38.0553 29.5064 37.298 29.5005C36.3311 29.5072 35.3702 29.3512 34.4564 29.039C33.58 28.7455 32.7783 28.2678 32.1066 27.6388C31.4348 27.0099 30.909 26.2445 30.5651 25.3955C30.1586 24.3837 29.9609 23.3018 29.9838 22.2135C29.9645 21.1465 30.1522 20.0857 30.5369 19.0886C30.8767 18.2212 31.3924 17.4316 32.0522 16.7684C32.6996 16.1314 33.4796 15.6413 34.3379 15.3321C35.2566 14.9985 36.2289 14.8322 37.2077 14.8413C39.3259 14.8413 41.0114 15.5185 42.2643 16.8729C43.5172 18.2274 44.1535 20.3166 44.1733 23.1407L34.9305 23.1296ZM39.3903 20.4509C39.3311 19.7017 39.1025 19.1114 38.7046 18.6801C38.5261 18.4749 38.3045 18.3106 38.0553 18.1986C37.806 18.0866 37.5351 18.0297 37.2613 18.0317C36.9739 18.0316 36.6895 18.0904 36.4263 18.2044C36.163 18.3184 35.9266 18.4851 35.7319 18.694C35.2768 19.1739 35.0041 19.7947 34.9601 20.4509H39.3903ZM46.0625 18.6661V24.8293C46.0557 25.4815 46.1306 26.1321 46.2854 26.7661C46.413 27.3063 46.6672 27.8092 47.0275 28.2344C47.4039 28.6549 47.8799 28.9764 48.413 29.1701C49.0916 29.4092 49.8092 29.5217 50.5294 29.5019C51.4116 29.5174 52.2912 29.4008 53.1381 29.1561C53.8811 28.9279 54.584 28.5879 55.222 28.148L53.9057 25.0929C53.638 25.294 53.3501 25.4673 53.0464 25.6102C52.7336 25.7628 52.3893 25.842 52.0405 25.8417C51.6718 25.8417 51.4338 25.7073 51.3266 25.4387C51.2062 25.0764 51.1522 24.6958 51.1671 24.3148V18.6703H54.5886L53.3286 15.1565H51.1671V11.6133H46.0667V15.1565H44.0562V18.6703L46.0625 18.6661ZM63.2557 29.2063L65.4708 21.8342L67.7142 29.2063H71.6195L76.6734 15.1565H71.4531L69.3565 22.6164L67.1696 15.1565H63.8427L61.6586 22.6164L58.0128 11.6008H53.0845L59.3842 29.2049L63.2557 29.2063ZM84.6605 29.2063L84.2528 28.1131C83.7928 28.5203 83.259 28.8377 82.6796 29.0487C81.9439 29.3213 81.1625 29.4533 80.377 29.4378C79.7536 29.4433 79.1337 29.3457 78.5428 29.1491C77.9987 28.9688 77.4982 28.6792 77.0727 28.2986C76.6541 27.927 76.3212 27.471 76.0963 26.9613C75.8534 26.3965 75.7342 25.7873 75.7464 25.1737C75.7268 24.5734 75.8497 23.9768 76.1053 23.4317C76.3608 22.8867 76.7419 22.4084 77.218 22.035C77.6973 21.6575 78.2333 21.3564 78.8067 21.1426C79.4268 20.9077 80.072 20.7435 80.7297 20.6531C81.3505 20.5602 81.9285 20.4881 82.4637 20.437C82.9989 20.3859 83.4895 20.3524 83.9353 20.3366V19.9908C83.9353 19.4154 83.7505 18.9933 83.3808 18.7247C83.0008 18.451 82.5401 18.3089 82.0701 18.3203C81.5243 18.3184 80.984 18.4276 80.4828 18.641C79.9656 18.8657 79.4803 19.1563 79.0395 19.5056L76.7679 16.9956C77.5403 16.3259 78.4219 15.7904 79.3753 15.4116C80.3375 15.0277 81.4888 14.8353 82.8292 14.8343C84.6944 14.8343 86.1805 15.281 87.2876 16.1744C88.3947 17.0677 88.9482 18.4565 88.9482 20.3408V29.2105L84.6605 29.2063ZM83.9325 22.8423C83.6404 22.8618 83.3498 22.8856 83.0577 22.9148C82.7657 22.9441 82.4652 22.9859 82.1533 23.0431C81.5523 23.1361 81.1253 23.3424 80.8722 23.6622C80.6272 23.9596 80.4936 24.3315 80.4941 24.715C80.4887 24.9008 80.5237 25.0855 80.5968 25.2568C80.6698 25.428 80.7791 25.5818 80.9174 25.7078C81.1996 25.9672 81.5927 26.0968 82.0969 26.0968C82.4402 26.1017 82.7814 26.0431 83.1029 25.9239C83.4006 25.8104 83.6804 25.6554 83.9339 25.4638L83.9325 22.8423ZM88.9666 34.162C89.5406 34.4132 90.1353 34.6152 90.7443 34.7657C91.4123 34.9245 92.0975 35.0017 92.7845 34.9958C93.9508 34.9958 94.9657 34.756 95.8292 34.2763C96.6927 33.7966 97.3779 32.9707 97.8849 31.7985L104.996 15.1523H99.7543L96.8987 23.3638L94.0134 15.1565H88.4756L94.5086 28.6067L93.6931 30.4194C93.5824 30.7102 93.3858 30.9614 93.1287 31.1403C92.8572 31.2866 92.5502 31.3565 92.2413 31.3425C91.8938 31.3363 91.5493 31.2775 91.2198 31.1682C90.8862 31.0674 90.5642 30.9323 90.259 30.7652L88.9666 34.162Z" fill="white"/>
</g>
<path d="M148.665 32.12C148.065 32.12 147.555 32.08 147.135 32V29C147.455 29.08 147.815 29.12 148.215 29.12C148.875 29.12 149.365 28.96 149.685 28.64C150.005 28.3 150.165 27.79 150.165 27.11V11H153.465V27.02C153.465 28.74 153.065 30.02 152.265 30.86C151.485 31.7 150.285 32.12 148.665 32.12ZM160.625 32.3C159.025 32.3 157.805 31.85 156.965 30.95C156.125 30.03 155.705 28.72 155.705 27.02V11H159.005V27.26C159.005 27.98 159.145 28.5 159.425 28.82C159.725 29.14 160.145 29.3 160.685 29.3C161.225 29.3 161.635 29.14 161.915 28.82C162.215 28.5 162.365 27.98 162.365 27.26V11H165.545V27.02C165.545 28.72 165.125 30.03 164.285 30.95C163.445 31.85 162.225 32.3 160.625 32.3ZM172.185 32.3C170.585 32.3 169.375 31.85 168.555 30.95C167.735 30.03 167.325 28.72 167.325 27.02V25.82H170.445V27.26C170.445 28.62 171.015 29.3 172.155 29.3C172.715 29.3 173.135 29.14 173.415 28.82C173.715 28.48 173.865 27.94 173.865 27.2C173.865 26.32 173.665 25.55 173.265 24.89C172.865 24.21 172.125 23.4 171.045 22.46C169.685 21.26 168.735 20.18 168.195 19.22C167.655 18.24 167.385 17.14 167.385 15.92C167.385 14.26 167.805 12.98 168.645 12.08C169.485 11.16 170.705 10.7 172.305 10.7C173.885 10.7 175.075 11.16 175.875 12.08C176.695 12.98 177.105 14.28 177.105 15.98V16.85H173.985V15.77C173.985 15.05 173.845 14.53 173.565 14.21C173.285 13.87 172.875 13.7 172.335 13.7C171.235 13.7 170.685 14.37 170.685 15.71C170.685 16.47 170.885 17.18 171.285 17.84C171.705 18.5 172.455 19.3 173.535 20.24C174.915 21.44 175.865 22.53 176.385 23.51C176.905 24.49 177.165 25.64 177.165 26.96C177.165 28.68 176.735 30 175.875 30.92C175.035 31.84 173.805 32.3 172.185 32.3ZM188.777 33.95C187.277 33.95 186.357 33.28 186.017 31.94C185.397 32.18 184.667 32.3 183.827 32.3C182.207 32.3 180.967 31.84 180.107 30.92C179.247 30 178.817 28.7 178.817 27.02V15.98C178.817 14.3 179.247 13 180.107 12.08C180.967 11.16 182.207 10.7 183.827 10.7C185.447 10.7 186.687 11.16 187.547 12.08C188.407 13 188.837 14.3 188.837 15.98V27.02C188.837 28.42 188.527 29.57 187.907 30.47C188.027 30.67 188.177 30.8 188.357 30.86C188.537 30.92 188.797 30.95 189.137 30.95H189.647V33.95H188.777ZM183.827 29.3C184.967 29.3 185.537 28.61 185.537 27.23V15.77C185.537 14.39 184.967 13.7 183.827 13.7C182.687 13.7 182.117 14.39 182.117 15.77V27.23C182.117 28.61 182.687 29.3 183.827 29.3ZM195.869 32.3C194.269 32.3 193.049 31.85 192.209 30.95C191.369 30.03 190.949 28.72 190.949 27.02V11H194.249V27.26C194.249 27.98 194.389 28.5 194.669 28.82C194.969 29.14 195.389 29.3 195.929 29.3C196.469 29.3 196.879 29.14 197.159 28.82C197.459 28.5 197.609 27.98 197.609 27.26V11H200.789V27.02C200.789 28.72 200.369 30.03 199.529 30.95C198.689 31.85 197.469 32.3 195.869 32.3ZM204.219 14.18H203.139V11H206.319V13.85L204.489 17.78H202.959L204.219 14.18ZM209.761 11H214.231L217.651 32H214.351L213.751 27.83V27.89H210.001L209.401 32H206.341L209.761 11ZM213.361 25.04L211.891 14.66H211.831L210.391 25.04H213.361ZM208.111 6.14H211.711L213.811 9.59H211.321L208.111 6.14Z" fill="#232323"/>
<path d="M228.677 15.98H225.227V13.64C226.167 13.64 226.917 13.56 227.477 13.4C228.057 13.24 228.517 12.98 228.857 12.62C229.197 12.24 229.497 11.7 229.757 11H231.977V32H228.677V15.98ZM240.899 32.3C239.299 32.3 238.079 31.85 237.239 30.95C236.399 30.03 235.979 28.72 235.979 27.02V25.37H239.099V27.26C239.099 28.62 239.669 29.3 240.809 29.3C241.949 29.3 242.519 28.62 242.519 27.26V22.55C242.519 21.17 241.949 20.48 240.809 20.48C239.669 20.48 239.099 21.17 239.099 22.55V22.73H235.979L236.579 11H245.279V14H239.519L239.249 19.01H239.309C239.929 17.99 240.879 17.48 242.159 17.48C243.359 17.48 244.269 17.89 244.889 18.71C245.509 19.53 245.819 20.72 245.819 22.28V27.02C245.819 28.72 245.399 30.03 244.559 30.95C243.719 31.85 242.499 32.3 240.899 32.3ZM252.851 32.3C251.231 32.3 249.991 31.84 249.131 30.92C248.271 30 247.841 28.7 247.841 27.02V15.98C247.841 14.3 248.271 13 249.131 12.08C249.991 11.16 251.231 10.7 252.851 10.7C254.471 10.7 255.711 11.16 256.571 12.08C257.431 13 257.861 14.3 257.861 15.98V27.02C257.861 28.7 257.431 30 256.571 30.92C255.711 31.84 254.471 32.3 252.851 32.3ZM252.851 29.3C253.991 29.3 254.561 28.61 254.561 27.23V15.77C254.561 14.39 253.991 13.7 252.851 13.7C251.711 13.7 251.141 14.39 251.141 15.77V27.23C251.141 28.61 251.711 29.3 252.851 29.3ZM265.222 32.3C263.622 32.3 262.412 31.85 261.592 30.95C260.792 30.03 260.392 28.72 260.392 27.02V23.6H259.552V21.95H260.392V20.3H259.552V18.65H260.392V15.98C260.392 14.28 260.792 12.98 261.592 12.08C262.412 11.16 263.622 10.7 265.222 10.7C266.822 10.7 268.022 11.16 268.822 12.08C269.642 12.98 270.052 14.28 270.052 15.98V16.97H266.932V15.77C266.932 15.03 266.792 14.5 266.512 14.18C266.252 13.86 265.852 13.7 265.312 13.7C264.772 13.7 264.362 13.86 264.082 14.18C263.822 14.5 263.692 15.03 263.692 15.77V18.65H268.312V20.3H263.692V21.95H268.312V23.6H263.692V27.26C263.692 27.98 263.822 28.5 264.082 28.82C264.362 29.14 264.772 29.3 265.312 29.3C265.852 29.3 266.252 29.14 266.512 28.82C266.792 28.5 266.932 27.98 266.932 27.26V25.28H270.052V27.02C270.052 28.72 269.642 30.03 268.822 30.95C268.022 31.85 266.822 32.3 265.222 32.3ZM281.679 32.3C280.059 32.3 278.819 31.84 277.959 30.92C277.099 30 276.669 28.7 276.669 27.02V15.98C276.669 14.3 277.099 13 277.959 12.08C278.819 11.16 280.059 10.7 281.679 10.7C283.299 10.7 284.539 11.16 285.399 12.08C286.259 13 286.689 14.3 286.689 15.98V27.02C286.689 28.7 286.259 30 285.399 30.92C284.539 31.84 283.299 32.3 281.679 32.3ZM281.679 29.3C282.819 29.3 283.389 28.61 283.389 27.23V15.77C283.389 14.39 282.819 13.7 281.679 13.7C280.539 13.7 279.969 14.39 279.969 15.77V27.23C279.969 28.61 280.539 29.3 281.679 29.3ZM288.92 11H297.65V14H292.22V19.85H296.48V22.85H292.22V32H288.92V11ZM299.233 11H307.963V14H302.533V19.85H306.793V22.85H302.533V32H299.233V11ZM309.545 11H318.545V14H312.845V19.55H317.375V22.55H312.845V29H318.545V32H309.545V11ZM320.444 11H325.334C327.034 11 328.274 11.4 329.054 12.2C329.834 12.98 330.224 14.19 330.224 15.83V17.12C330.224 19.3 329.504 20.68 328.064 21.26V21.32C328.864 21.56 329.424 22.05 329.744 22.79C330.084 23.53 330.254 24.52 330.254 25.76V29.45C330.254 30.05 330.274 30.54 330.314 30.92C330.354 31.28 330.454 31.64 330.614 32H327.254C327.134 31.66 327.054 31.34 327.014 31.04C326.974 30.74 326.954 30.2 326.954 29.42V25.58C326.954 24.62 326.794 23.95 326.474 23.57C326.174 23.19 325.644 23 324.884 23H323.744V32H320.444V11ZM324.944 20C325.604 20 326.094 19.83 326.414 19.49C326.754 19.15 326.924 18.58 326.924 17.78V16.16C326.924 15.4 326.784 14.85 326.504 14.51C326.244 14.17 325.824 14 325.244 14H323.744V20H324.944ZM335.065 14H331.615V11H341.815V14H338.365V32H335.065V14ZM347.703 32.3C346.103 32.3 344.893 31.85 344.073 30.95C343.253 30.03 342.843 28.72 342.843 27.02V25.82H345.963V27.26C345.963 28.62 346.533 29.3 347.673 29.3C348.233 29.3 348.653 29.14 348.933 28.82C349.233 28.48 349.383 27.94 349.383 27.2C349.383 26.32 349.183 25.55 348.783 24.89C348.383 24.21 347.643 23.4 346.563 22.46C345.203 21.26 344.253 20.18 343.713 19.22C343.173 18.24 342.903 17.14 342.903 15.92C342.903 14.26 343.323 12.98 344.163 12.08C345.003 11.16 346.223 10.7 347.823 10.7C349.403 10.7 350.593 11.16 351.393 12.08C352.213 12.98 352.623 14.28 352.623 15.98V16.85H349.503V15.77C349.503 15.05 349.363 14.53 349.083 14.21C348.803 13.87 348.393 13.7 347.853 13.7C346.753 13.7 346.203 14.37 346.203 15.71C346.203 16.47 346.403 17.18 346.803 17.84C347.223 18.5 347.973 19.3 349.053 20.24C350.433 21.44 351.383 22.53 351.903 23.51C352.423 24.49 352.683 25.64 352.683 26.96C352.683 28.68 352.253 30 351.393 30.92C350.553 31.84 349.323 32.3 347.703 32.3Z" fill="#02CC2B"/>
<path d="M116.255 28.9905L121.429 23.8161L117.737 21.6839C117.449 21.5173 117.281 21.2007 117.305 20.8685C117.329 20.5362 117.541 20.2468 117.85 20.1235L134.311 13.5573C134.634 13.4285 135.002 13.5044 135.248 13.75C135.493 13.9958 135.569 14.3642 135.441 14.6869L128.875 31.1494C128.752 31.4588 128.463 31.6706 128.13 31.6946C127.798 31.7187 127.481 31.5508 127.315 31.2623L125.183 27.5709L120.009 32.7452C119.846 32.9083 119.625 33 119.394 33C119.164 33 118.942 32.9083 118.779 32.7452L116.255 30.2201C115.915 29.8805 115.915 29.33 116.255 28.9905Z" fill="#02CC2B"/>
<path d="M138.181 9.58704C138.521 9.24772 139.071 9.24764 139.411 9.58704C139.75 9.92661 139.75 10.4772 139.411 10.8167L137.479 12.7487C137.309 12.9185 137.087 13.0034 136.864 13.0034C136.642 13.0034 136.419 12.9185 136.249 12.7487C135.91 12.4091 135.91 11.8587 136.249 11.5191L138.181 9.58704Z" fill="#02CC2B"/>
<path d="M137.526 15.5979C137.526 15.1178 137.916 14.7285 138.396 14.7285H141.128C141.608 14.7285 141.998 15.1178 141.998 15.5979C141.998 16.0781 141.608 16.4675 141.128 16.4675H138.396C137.916 16.4674 137.526 16.0781 137.526 15.5979Z" fill="#02CC2B"/>
<path d="M137.879 18.2814L139.811 20.2136C140.151 20.5532 140.151 21.1037 139.811 21.4432C139.641 21.6129 139.419 21.6979 139.196 21.6979C138.974 21.6979 138.751 21.6129 138.581 21.4432L136.649 19.5111C136.31 19.1716 136.31 18.621 136.649 18.2814C136.989 17.9421 137.539 17.942 137.879 18.2814Z" fill="#02CC2B"/>
<path d="M133.4 11.4715C132.92 11.4715 132.531 11.0822 132.531 10.6019V7.86947C132.531 7.3893 132.92 7 133.4 7C133.88 7 134.27 7.38921 134.27 7.86947V10.602C134.27 11.0822 133.88 11.4715 133.4 11.4715Z" fill="#02CC2B"/>
<path d="M130.102 12.6032C129.88 12.6032 129.657 12.5183 129.488 12.3485L127.556 10.4166C127.216 10.077 127.216 9.52644 127.556 9.18686C127.895 8.84746 128.446 8.84746 128.785 9.18686L130.717 11.1189C131.057 11.4585 131.057 12.009 130.717 12.3485C130.547 12.5183 130.325 12.6032 130.102 12.6032Z" fill="#02CC2B"/>
<defs>
<linearGradient id="paint0_linear" x1="113.943" y1="30.9999" x2="366" y2="30.9999" gradientUnits="userSpaceOnUse">
<stop offset="0.0199364" stop-color="white" stop-opacity="0.87"/>
<stop offset="1" stop-color="white"/>
</linearGradient>
<linearGradient id="paint1_linear" x1="108.651" y1="30.9999" x2="349" y2="30.9999" gradientUnits="userSpaceOnUse">
<stop offset="0.0199364" stop-color="white" stop-opacity="0.87"/>
<stop offset="1" stop-color="white"/>
</linearGradient>
<clipPath id="clip0">
<rect width="90" height="25" fill="white" transform="translate(15 10)"/>
</clipPath>
</defs>
</svg>
